<?xml version="1.0" standalone="no"?>
<!DOCTYPE svg PUBLIC "-//W3C//DTD SVG 20010904//EN"
 "http://www.w3.org/TR/2001/REC-SVG-20010904/DTD/svg10.dtd">
<svg version="1.0" xmlns="http://www.w3.org/2000/svg"
 width="818.000000pt" height="818.000000pt" viewBox="0 0 818.000000 818.000000"
 preserveAspectRatio="xMidYMid meet">
<metadata>
Created by potrace 1.11, written by Peter Selinger 2001-2013
</metadata>
<g transform="translate(0.000000,818.000000) scale(0.100000,-0.100000)"
fill="#000000" stroke="none">
<path d="M2564 6535 c-34 -6 -79 -19 -101 -28 -23 -9 -43 -13 -47 -10 -3 4 -6
2 -6 -3 0 -6 -16 -16 -35 -24 -19 -8 -35 -17 -35 -21 0 -4 -9 -10 -20 -14 -53
-17 -195 -186 -235 -280 -69 -161 -71 -386 -4 -516 10 -21 19 -45 19 -54 0 -8
4 -15 9 -15 5 0 13 -10 17 -22 3 -12 12 -27 18 -34 6 -6 19 -22 30 -35 10 -13
27 -34 38 -46 l20 -21 -1057 0 c-819 0 -1063 -3 -1086 -12 -88 -37 -74 -184
26 -251 34 -23 110 -47 155 -48 99 -2 233 -12 241 -16 5 -4 30 -8 57 -10 26
-2 58 -7 72 -10 14 -3 36 -8 50 -11 73 -15 123 -27 200 -50 47 -14 90 -27 95
-28 36 -10 161 -58 245 -94 93 -40 265 -127 280 -142 3 -3 37 -26 76 -52 166
-112 247 -200 316 -348 55 -118 87 -240 92 -358 4 -68 3 -72 -18 -72 -11 -1
-136 -1 -276 -1 -140 0 -273 -5 -295 -11 -101 -26 -182 -152 -187 -293 -1 -20
13 -91 24 -125 21 -65 71 -125 132 -158 36 -19 155 -26 294 -18 17 1 32 -2 32
-7 0 -4 4 -6 9 -3 5 3 37 6 72 6 35 0 83 0 107 0 28 1 42 -3 42 -12 0 -14 -18
-127 -26 -168 -3 -14 -7 -38 -8 -55 -2 -16 -11 -68 -20 -115 -8 -47 -18 -98
-21 -115 -3 -16 -10 -52 -15 -80 -6 -27 -12 -60 -15 -73 -2 -13 -6 -31 -9 -40
-3 -9 -8 -29 -11 -44 -13 -71 -17 -86 -26 -122 -6 -22 -12 -49 -14 -60 -1 -12
-5 -28 -7 -36 -15 -46 -27 -89 -33 -120 -4 -19 -14 -56 -22 -81 -8 -25 -15
-52 -17 -60 -3 -19 -42 -145 -77 -249 -37 -113 -41 -147 -22 -187 24 -52 63
-74 123 -72 45 2 57 8 101 49 27 25 49 51 49 57 0 6 3 13 8 15 8 3 62 84 62
93 0 2 18 34 40 70 22 36 40 67 40 70 0 3 13 26 28 52 41 68 292 532 432 798
125 237 121 231 164 239 37 7 63 -21 141 -150 33 -55 62 -101 65 -104 3 -3 25
-39 50 -80 24 -41 47 -76 52 -78 4 -2 8 -8 8 -13 0 -6 18 -37 40 -70 22 -33
40 -63 40 -67 0 -4 14 -25 30 -46 17 -22 30 -46 30 -53 0 -7 5 -13 10 -13 6 0
10 -6 10 -14 0 -7 7 -19 15 -26 8 -7 15 -21 15 -31 0 -18 -75 -283 -136 -480
-32 -103 -28 -143 18 -188 26 -25 40 -31 74 -31 92 0 136 42 253 239 46 78 85
141 87 141 2 0 11 -15 20 -32 33 -65 140 -205 211 -275 66 -66 76 -73 112 -73
31 0 49 7 76 31 19 17 33 35 30 39 -3 5 -2 11 3 14 16 10 12 66 -9 123 -12 32
-53 133 -90 225 -38 91 -84 209 -103 261 l-33 95 34 64 c19 35 62 115 95 178
33 63 73 138 88 165 15 28 47 87 71 133 48 94 77 123 116 116 33 -6 37 -11
107 -124 32 -52 96 -155 142 -228 46 -73 84 -135 84 -137 0 -3 15 -27 33 -53
18 -26 49 -75 70 -109 l38 -63 -20 -62 c-11 -35 -34 -108 -51 -163 -17 -55
-34 -107 -37 -115 -3 -8 -7 -17 -8 -20 0 -3 -18 -56 -38 -118 -45 -136 -43
-176 10 -222 52 -46 100 -42 153 13 23 23 58 67 78 97 20 30 39 57 42 60 12
11 90 142 90 151 0 23 19 2 65 -74 28 -45 51 -87 53 -94 2 -7 7 -13 12 -13 5
0 11 -9 15 -19 10 -31 68 -99 107 -126 41 -27 100 -33 142 -13 29 12 66 81 66
119 0 13 -12 58 -26 99 -23 68 -59 183 -69 220 -2 8 -18 65 -35 125 -18 61
-33 117 -35 125 -2 8 -4 20 -6 25 -4 12 50 124 68 143 7 7 13 17 13 21 0 4 22
48 48 97 44 80 78 145 193 363 40 75 72 102 111 94 21 -4 42 -28 94 -112 37
-58 84 -131 103 -161 19 -30 35 -57 36 -60 0 -3 14 -25 29 -50 62 -97 133
-210 362 -579 232 -373 289 -452 341 -472 70 -26 143 1 168 63 20 51 19 62
-11 154 -30 92 -94 302 -99 324 -2 8 -18 69 -36 135 -17 66 -33 130 -34 142
-2 11 -10 45 -18 75 -12 43 -25 102 -27 128 -1 3 -5 23 -10 45 -6 22 -13 56
-16 75 -3 19 -9 51 -14 70 -5 19 -11 51 -14 70 -3 19 -7 44 -10 55 -4 22 -17
99 -22 130 -2 11 -5 36 -8 55 -7 41 -17 119 -19 145 -2 14 5 18 36 17 20 0 40
-1 45 -2 4 -1 25 -1 47 0 22 1 55 3 73 4 17 1 32 -2 32 -7 0 -4 5 -5 10 -2 6
4 67 7 136 7 152 1 197 18 256 96 110 144 80 372 -62 474 l-45 33 -289 2
c-159 1 -294 4 -301 7 -6 2 -10 18 -9 35 14 203 61 351 157 498 51 77 75 104
144 159 26 21 50 42 51 47 2 4 10 7 17 7 7 0 15 3 17 8 7 17 279 179 313 186
6 1 36 14 68 29 32 15 60 27 63 27 3 0 20 6 37 14 36 17 190 68 257 86 51 14
69 18 125 30 22 5 51 12 65 16 14 3 36 7 50 8 14 2 39 6 55 9 61 13 123 19
215 23 52 1 95 3 95 4 0 1 17 3 37 6 46 4 127 41 151 69 30 33 47 81 47 130 0
38 -5 52 -29 76 -16 16 -40 29 -53 29 -13 1 -492 1 -1065 1 -979 1 -1042 2
-1034 18 5 9 20 28 33 41 21 22 60 82 95 146 43 79 68 273 49 379 -48 274
-259 490 -526 539 -3 1 -9 4 -15 7 -18 11 -257 1 -272 -11 -2 -2 -7 -4 -13 -5
-5 -1 -11 -3 -12 -5 -2 -1 -10 -3 -19 -5 -26 -5 -152 -67 -167 -81 -7 -7 -25
-21 -40 -30 -35 -21 -126 -126 -159 -184 -33 -59 -72 -164 -80 -220 -20 -137
8 -308 68 -419 33 -60 78 -124 91 -129 5 -2 13 -12 18 -22 9 -17 -3 -18 -231
-19 -188 0 -238 2 -233 12 4 6 24 32 45 57 205 248 188 619 -39 862 -74 79
-222 170 -297 182 -16 2 -30 5 -30 6 0 5 -61 11 -138 14 -182 7 -339 -56 -473
-189 -106 -105 -165 -215 -189 -350 -10 -51 -9 -177 0 -235 16 -101 96 -261
161 -322 13 -13 24 -26 24 -29 0 -4 -108 -7 -241 -7 -263 -1 -249 -5 -195 53
50 54 100 147 128 240 23 73 31 225 16 311 -7 41 -41 139 -62 177 -140 260
-425 397 -712 342z"/>
</g>
</svg>
